<svg xmlns="http://www.w3.org/2000/svg" viewBox="0 0 200 200" width="200" height="200" style="background:#050508; font-family:sans-serif; overflow:hidden;">
  <defs>
    <!-- Butterfly Wing Gradients: Evolved Gothic Theme -->
    <linearGradient id="left-wing-grad-fav" x1="0%" y1="0%" x2="100%" y2="100%">
      <stop offset="0%" stop-color="#2e1065" />
      <stop offset="40%" stop-color="#ec4899" />
      <stop offset="75%" stop-color="#f472b6" />
      <stop offset="100%" stop-color="#ffffff" stop-opacity="0.9" />
    </linearGradient>
    <linearGradient id="right-wing-grad-fav" x1="100%" y1="0%" x2="0%" y2="100%">
      <stop offset="0%" stop-color="#2e1065" />
      <stop offset="40%" stop-color="#ec4899" />
      <stop offset="75%" stop-color="#f472b6" />
      <stop offset="100%" stop-color="#ffffff" stop-opacity="0.9" />
    </linearGradient>

    <!-- Metallic body gradient -->
    <linearGradient id="body-grad-fav" x1="0%" y1="0%" x2="100%" y2="0%">
      <stop offset="0%" stop-color="#020205" />
      <stop offset="50%" stop-color="#ec4899" />
      <stop offset="100%" stop-color="#020205" />
    </linearGradient>

    <filter id="beauty-glow-fav">
      <feGaussianBlur stdDeviation="3" result="coloredBlur"/>
      <feMerge>
        <feMergeNode in="coloredBlur"/>
        <feMergeNode in="SourceGraphic"/>
      </feMerge>
    </filter>
  </defs>

  <!-- Centered Butterfly -->
  <g transform="translate(100, 95) scale(0.92)" filter="url(#beauty-glow-fav)" style="overflow:visible;">
    <!-- Wings Underglow Shadows for depth -->
    <path d="M 0,-10 C -25,-48 -58,-58 -72,-55 C -84,-43 -88,-28 -85,-22 C -95,-12 -98 2 -92 14 C -82 28 -92 46 -82 58 Q -50,45 0,10 Z" fill="#ec4899" opacity="0.15" />
    <path d="M 0,-10 C 25,-48 58,-58 72,-55 C 84,-43 88,-28 85,-22 C 95,-12 98 2 92 14 C 82 28 92 46 82 58 Q 50,45 0,10 Z" fill="#a855f7" opacity="0.15" />

    <!-- Dragon Horns (Spiky Curving Antennas) -->
    <path d="M -3,-24 Q -9,-49 -21,-67 Q -9,-57 -6,-43 Q -13,-51 -17,-55" fill="#020205" stroke="#ec4899" stroke-width="1" />
    <path d="M 3,-24 Q 9,-49 21,-67 Q 9,-57 6,-43 Q 13,-51 17,-55" fill="#020205" stroke="#ec4899" stroke-width="1" />

    <!-- Left Upper Wing (Spiky bat/dragon wing pattern) -->
    <path d="M 0,-10 Q -25,-48 -58,-58 C -72,-55 -88,-45 -85,-28 C -95,-20 -98,-8 -92,4 C -82,18 -92,36 -82,48 C -75,55 -62,52 -52,42 C -42,32 -25,20 0,10 Z" fill="url(#left-wing-grad-fav)" stroke="#ec4899" stroke-width="1.5" stroke-opacity="0.95" />
    
    <!-- Right Upper Wing (Spiky bat/dragon wing pattern) -->
    <path d="M 0,-10 Q 25,-48 58,-58 C 72,-55 88,-45 85,-28 C 95,-20 98,-8 92,4 C 82,18 92,36 82,48 C 75,55 62,52 52,42 C 42,32 25,20 0,10 Z" fill="url(#right-wing-grad-fav)" stroke="#ec4899" stroke-width="1.5" stroke-opacity="0.95" />

    <!-- Internal wing detail lines -->
    <path d="M 0,-10 Q -28,-25 -58,-58 M 0,-10 Q -36,-10 -92,4 M 0,-10 Q -32,12 -82,48" fill="none" stroke="#020205" stroke-width="1.5" stroke-opacity="0.9" />
    <path d="M 0,-10 Q 28,-25 58,-58 M 0,-10 Q 36,-10 92,4 M 0,-10 Q 32,12 82,48" fill="none" stroke="#020205" stroke-width="1.5" stroke-opacity="0.9" />

    <!-- Body Core Spine segments -->
    <rect x="-6" y="-24" width="12" height="15" rx="3" fill="#020205" stroke="#f472b6" stroke-width="1.2" />
    <rect x="-5" y="-11" width="10" height="14" rx="2" fill="#020205" stroke="#f472b6" stroke-width="1.2" />
    <rect x="-4" y="1" width="8" height="14" rx="2" fill="#020205" stroke="#f472b6" stroke-width="1.2" />

    <!-- Segmented reptilian tail curving down -->
    <path d="M 0,15 Q 0,40 -4,60 Q -8,74 -17,84 C -23,88 -16,94 -8,89 C 2,81 6,64 4,44 Q 2,24 0,15 Z" fill="url(#body-grad-fav)" stroke="#f472b6" stroke-width="1.2" />

    <!-- Sharp scorpion hook tip -->
    <path d="M -15,86 L -24,93 L -17,81 Z" fill="#f472b6" stroke="#ffffff" stroke-width="0.5" />

    <!-- Dragon Head & Glowing Eyes -->
    <polygon points="-6,-24 0,-33 6,-24" fill="#020205" stroke="#ec4899" stroke-width="1" />
    <polygon points="-4,-28 -2,-27 -3,-29" fill="#f43f5e" />
    <polygon points="4,-28 2,-27 3,-29" fill="#f43f5e" />

    <!-- Glowing Crystalline Chest Heart Gem -->
    <path d="M 0,-5 C 0,-5, -4,-10, -4,-15 C -4,-18, -2,-20, 0,-20 C 2,-20, 4,-18, 4,-15 C 4,-10, 0,-5, 0,-5 Z" fill="#fb7185" />
    <circle cx="0" cy="-15" r="1.5" fill="#ffffff" />

    <!-- Glowing Node Connectors on the butterfly to look techy -->
    <line x1="-85" y1="-40" x2="-65" y2="15" stroke="#FFFFFF" stroke-opacity="0.2" stroke-width="1" />
    <line x1="85" y1="-40" x2="65" y2="15" stroke="#FFFFFF" stroke-opacity="0.2" stroke-width="1" />
    <circle cx="-85" cy="-40" r="4" fill="#FFFFFF" opacity="0.6" />
    <circle cx="85" cy="-40" r="4" fill="#FFFFFF" opacity="0.6" />
    <circle cx="-65" cy="15" r="4" fill="#F59E0B" opacity="0.7" />
    <circle cx="65" cy="15" r="4" fill="#A855F7" opacity="0.7" />
  </g>
</svg>
